/vscmnt/brussel_pixiu_data/_data_brussel/112/vsc11236/PredSimResults/SUBJ06mtu3D/worker3.mot
version=1
nRows=9
nColumns=50
inDegrees=yes
endheader
                time	         pelvis_tilt	         pelvis_list	     pelvis_rotation	           pelvis_tx	           pelvis_ty	           pelvis_tz	       hip_flexion_r	     hip_adduction_r	      hip_rotation_r	        knee_angle_r	       ankle_angle_r	         mtp_angle_r	       hip_flexion_l	     hip_adduction_l	      hip_rotation_l	        knee_angle_l	       ankle_angle_l	         mtp_angle_l	    lumbar_extension	      lumbar_bending	     lumbar_rotation	 ercspn_r/activation	 intobl_r/activation	 extobl_r/activation	    abd_r/activation	    add_r/activation	hamstrings_r/activation	bifemsh_r/activation	glut_max_r/activation	iliopsoas_r/activation	rect_fem_r/activation	  vasti_r/activation	gastroc_r/activation	 soleus_r/activation	tib_ant_r/activation	 ercspn_l/activation	 intobl_l/activation	 extobl_l/activation	    abd_l/activation	    add_l/activation	hamstrings_l/activation	bifemsh_l/activation	glut_max_l/activation	iliopsoas_l/activation	rect_fem_l/activation	  vasti_l/activation	gastroc_l/activation	 soleus_l/activation	tib_ant_l/activation	
          0.62210762	        -18.86677718	         10.22668705	         -9.87668634	          0.69676053	          0.94579743	          0.01326992	         -2.31003361	        -15.96866808	        -28.87525940	         11.59378658	        -44.14051100	         60.06833422	         50.38173753	         -8.69499978	         14.12131402	        -10.29330005	        -63.76931544	          0.22615147	        -10.01274010	         -9.47326211	          0.95248087	          0.87822555	          0.11167918	          0.20075607	          0.58916269	          0.06468664	          0.39393881	          0.65072838	          0.11053339	          0.90084076	          0.34266748	          0.58070850	          0.13090357	          0.06478684	          0.91493345	          0.88853527	          0.48108404	          0.22978629	          0.02784626	          0.13209273	          0.38608225	          0.77372580	          0.48968687	          0.75433050	          0.60768948	          0.38120832	          0.17386362	          0.04174016	          0.70892244	
          0.63454977	        -19.33606713	         11.38334110	        -10.06974312	          0.71307152	          0.94013013	          0.00794794	         -2.49843602	        -17.67916438	        -29.03839694	         11.39759214	        -44.00177276	         59.97892412	         51.79753799	         -7.39867220	         12.25912455	        -14.20999289	        -61.53587138	          1.98221573	         -9.23315646	        -10.93538463	          0.62486547	          0.92169462	          0.09439261	          0.32266143	          0.57378903	          0.05638593	          0.43140039	          0.65859589	          0.09862581	          0.91251103	          0.30380786	          0.56775615	          0.12551985	          0.06167548	          0.93266172	          0.82873046	          0.42060791	          0.19169409	          0.02306365	          0.11190673	          0.39239233	          0.73860056	          0.68750307	          0.64927417	          0.58748109	          0.37076201	          0.14400222	          0.03457133	          0.73570716	
          0.64699192	        -19.71119605	         12.66632735	        -10.14821051	          0.72977055	          0.93552629	          0.00244555	         -2.66438928	        -19.66697771	        -29.07363831	         11.02561124	        -44.48748691	         60.10344221	         53.33379635	         -6.11848457	          9.95734831	        -19.47256619	        -56.76965366	          5.88344000	         -8.45309619	        -12.53453912	          0.20185838	          0.95004390	          0.15500370	          0.29686079	          0.58907130	          0.05541935	          0.48607972	          0.65743036	          0.09520421	          0.89740455	          0.26651238	          0.55664097	          0.14255379	          0.06389347	          0.93241567	          0.83435735	          0.35933037	          0.15976469	          0.01910250	          0.09494231	          0.36208183	          0.71511090	          0.64178821	          0.62075561	          0.53934153	          0.35424225	          0.11926954	          0.02863379	          0.76379352	
          0.65943408	        -19.92322717	         13.58617645	        -10.17933641	          0.74727112	          0.93178833	         -0.00294835	         -3.17758733	        -21.29504147	        -29.06895731	         10.85858448	        -45.66405299	         60.12427222	         54.47227112	         -5.29078867	          7.40050463	        -24.37874499	        -52.26024191	         10.83387575	         -7.76204026	        -13.72739659	         -0.20146307	          0.96537600	          0.29653229	          0.30121421	          0.60666746	          0.05427364	          0.44336765	          0.67379209	          0.08832488	          0.89971945	          0.23207794	          0.53496476	          0.33226086	          0.07836676	          0.91422038	          0.75982426	          0.30909718	          0.13367818	          0.02626288	          0.08449344	          0.39553820	          0.69411206	          0.62178685	          0.55125139	          0.46410015	          0.34417836	          0.09878474	          0.02569901	          0.80164401	
          0.67187623	        -19.99994936	         13.97869877	        -10.05059915	          0.76553710	          0.92876078	         -0.00845679	         -3.96959650	        -22.43680656	        -29.07327087	         10.60505588	        -47.25078504	         60.03866684	         55.05185763	         -4.84658865	          5.00580698	        -28.08457048	        -49.63800797	         16.50656575	         -7.19632275	        -14.28968520	         -0.73209245	          0.96840184	          0.51638747	          0.35690746	          0.54067346	          0.04719235	          0.38324524	          0.72132074	          0.07712223	          0.92730538	          0.20066578	          0.50277473	          0.57369754	          0.09417576	          0.90417065	          0.67218524	          0.26804148	          0.11402546	          0.04597569	          0.10927124	          0.47623033	          0.66292303	          0.63150416	          0.48782037	          0.53875002	          0.38834788	          0.08181826	          0.02754282	          0.82891008	
          0.68431838	        -19.93170435	         13.88361070	         -9.74703499	          0.78424653	          0.92663130	         -0.01426148	         -4.81278775	        -23.21721571	        -29.03880896	          9.93093311	        -49.27799422	         60.07058050	         55.04861137	         -4.59036332	          3.18264044	        -30.77817340	        -48.17323716	         22.65781322	         -6.83323791	        -14.24137283	         -1.47394776	          0.96718762	          0.64116668	          0.39580330	          0.45659754	          0.03908701	          0.32555695	          0.78296404	          0.06387638	          0.95367453	          0.17316913	          0.46478735	          0.71798291	          0.11307832	          0.88018108	          0.60377272	          0.23387370	          0.10085736	          0.07609450	          0.19000243	          0.53013210	          0.63049576	          0.62017010	          0.43870843	          0.57314973	          0.50232190	          0.06776583	          0.03370182	          0.84589483	
          0.69676053	        -19.70881196	         13.56324534	         -9.42603056	          0.80322569	          0.92559287	         -0.02020618	         -5.48756837	        -23.94235783	        -28.81124741	          8.75903869	        -51.85005233	         60.15918816	         54.26848162	         -4.33298747	          2.07263118	        -32.39547639	        -47.08671089	         29.24680707	         -6.62920161	        -13.88602951	         -2.31246967	          0.96645770	          0.65404677	          0.44056143	          0.38279919	          0.03237377	          0.27621160	          0.82097649	          0.05290552	          0.96927764	          0.15479096	          0.43149292	          0.78779602	          0.16327883	          0.83251761	          0.55326735	          0.20368953	          0.09184965	          0.12812188	          0.31293962	          0.59236134	          0.59955253	          0.60920023	          0.39733739	          0.58122526	          0.62332455	          0.05961243	          0.04388111	          0.85562728	
          0.70920269	        -19.36054131	         13.16144325	         -9.20866193	          0.82237694	          0.92579819	         -0.02611635	         -5.84531248	        -24.74208667	        -28.33194664	          7.11813112	        -54.98104269	         59.97105688	         52.60033249	         -3.96121317	          1.88410739	        -32.85974578	        -45.71901740	         35.89989038	         -6.50818158	        -13.39176024	         -3.10492005	          0.96624229	          0.61003792	          0.49063927	          0.32106772	          0.02681356	          0.23510509	          0.83605254	          0.04381895	          0.97623647	          0.15810434	          0.40716881	          0.80525518	          0.23209951	          0.78857775	          0.53875858	          0.18238707	          0.08612224	          0.36899681	          0.47498833	          0.65082057	          0.56879994	          0.61154704	          0.35735560	          0.57483229	          0.71972117	          0.05393480	          0.05501213	          0.86271384	
          0.72164484	        -18.94958272	         12.60668419	         -9.10395956	          0.84143459	          0.92742952	         -0.03183488	         -5.71975964	        -25.52095487	        -27.63500126	          4.89442730	        -58.48110198	         59.03410507	         50.23574544	         -3.55033399	          2.68802947	        -32.37737002	        -43.59349662	         41.29751864	         -6.43680069	        -12.69290280	         -3.78807357	          0.96498662	          0.58223182	          0.52487411	          0.27164524	          0.02220841	          0.20361483	          0.83076859	          0.03629306	          0.97294097	          0.21580376	          0.39417927	          0.79751727	          0.33007227	          0.75479422	          0.53699668	          0.16447365	          0.08274004	          0.63442239	          0.60472043	          0.67279066	          0.54073834	          0.60386085	          0.32449492	          0.56191554	          0.78043054	          0.04800333	          0.06446609	          0.86837009	
